HIERARCHY
ROOT Hips
{
	OFFSET 0.00000 0.00000 0.00000
	CHANNELS 6 Xposition Yposition Zposition Zrotation Yrotation Xrotation 
	JOINT LHipJoint
	{
		OFFSET 0 0 0
		CHANNELS 3 Zrotation Yrotation Xrotation
		JOINT LeftUpLeg
		{
			OFFSET 1.36337 -1.57426 1.11036
			CHANNELS 3 Zrotation Yrotation Xrotation
			JOINT LeftLeg
			{
				OFFSET 2.38468 -6.55187 0.00000
				CHANNELS 3 Zrotation Yrotation Xrotation
				JOINT LeftFoot
				{
					OFFSET 2.37166 -6.51609 0.00000
					CHANNELS 3 Zrotation Yrotation Xrotation
					JOINT LeftToeBase
					{
						OFFSET 0.29078 -0.79891 2.01393
						CHANNELS 3 Zrotation Yrotation Xrotation
						End Site
						{
							OFFSET 0.00000 -0.00000 1.07924
						}
					}
				}
			}
		}
	}
	JOINT RHipJoint
	{
		OFFSET 0 0 0
		CHANNELS 3 Zrotation Yrotation Xrotation
		JOINT RightUpLeg
		{
			OFFSET -1.36349 -1.57426 1.11036
			CHANNELS 3 Zrotation Yrotation Xrotation
			JOINT RightLeg
			{
				OFFSET -2.29562 -6.30717 0.00000
				CHANNELS 3 Zrotation Yrotation Xrotation
				JOINT RightFoot
				{
					OFFSET -2.40985 -6.62100 0.00000
					CHANNELS 3 Zrotation Yrotation Xrotation
					JOINT RightToeBase
					{
						OFFSET -0.23197 -0.63733 1.92232
						CHANNELS 3 Zrotation Yrotation Xrotation
						End Site
						{
							OFFSET -0.00000 -0.00000 1.01562
						}
					}
				}
			}
		}
	}
	JOINT LowerBack
	{
		OFFSET 0 0 0
		CHANNELS 3 Zrotation Yrotation Xrotation
		JOINT Spine
		{
			OFFSET -0.08565 2.03602 -0.24562
			CHANNELS 3 Zrotation Yrotation Xrotation
			JOINT Spine1
			{
				OFFSET -0.00036 2.05693 0.00216
				CHANNELS 3 Zrotation Yrotation Xrotation
				JOINT Neck
				{
					OFFSET 0 0 0
					CHANNELS 3 Zrotation Yrotation Xrotation
					JOINT Neck1
					{
						OFFSET -0.03664 1.69515 0.31789
						CHANNELS 3 Zrotation Yrotation Xrotation
						JOINT Head
						{
							OFFSET 0.00932 1.70181 -0.46013
							CHANNELS 3 Zrotation Yrotation Xrotation
							End Site
							{
								OFFSET 0.01243 1.77620 -0.19377
							}
						}
					}
				}
				JOINT LeftShoulder
				{
					OFFSET 0 0 0
					CHANNELS 3 Zrotation Yrotation Xrotation
					JOINT LeftArm
					{
						OFFSET 3.74344 0.81315 -0.36647
						CHANNELS 3 Zrotation Yrotation Xrotation
						JOINT LeftForeArm
						{
							OFFSET 4.97185 -0.00000 -0.00000
							CHANNELS 3 Zrotation Yrotation Xrotation
							JOINT LeftHand
							{
								OFFSET 3.35811 -0.00000 0.00000
								CHANNELS 3 Zrotation Yrotation Xrotation
								JOINT LeftFingerBase
								{
									OFFSET 0 0 0
									CHANNELS 3 Zrotation Yrotation Xrotation
									JOINT LeftHandIndex1
									{
										OFFSET 0.62278 -0.00000 0.00000
										CHANNELS 3 Zrotation Yrotation Xrotation
										End Site
										{
											OFFSET 0.50210 -0.00000 0.00000
										}
									}
								}
								JOINT LThumb
								{
									OFFSET 0 0 0
									CHANNELS 3 Zrotation Yrotation Xrotation
									End Site
									{
										OFFSET 0.50976 -0.00000 0.50976
									}
								}
							}
						}
					}
				}
				JOINT RightShoulder
				{
					OFFSET 0 0 0
					CHANNELS 3 Zrotation Yrotation Xrotation
					JOINT RightArm
					{
						OFFSET -3.75385 0.50666 -0.06525
						CHANNELS 3 Zrotation Yrotation Xrotation
						JOINT RightForeArm
						{
							OFFSET -4.96493 -0.00000 -0.00000
							CHANNELS 3 Zrotation Yrotation Xrotation
							JOINT RightHand
							{
								OFFSET -3.34929 -0.00000 0.00000
								CHANNELS 3 Zrotation Yrotation Xrotation
								JOINT RightFingerBase
								{
									OFFSET 0 0 0
									CHANNELS 3 Zrotation Yrotation Xrotation
									JOINT RightHandIndex1
									{
										OFFSET -0.63804 -0.00000 0.00000
										CHANNELS 3 Zrotation Yrotation Xrotation
										End Site
										{
											OFFSET -0.51441 -0.00000 0.00000
										}
									}
								}
								JOINT RThumb
								{
									OFFSET 0 0 0
									CHANNELS 3 Zrotation Yrotation Xrotation
									End Site
									{
										OFFSET -0.52226 -0.00000 0.52226
									}
								}
							}
						}
					}
				}
			}
		}
	}
}
MOTION
Frames: 5
Frame Time: .0083333
-4.4147 14.4892 0.5812 134.2110 77.3340 145.4320 0.0000 0.0000 0.0000 -14.1444 6.6324 -58.5630 10.5360 17.7005 61.2654 -0.1922 18.0748 -23.8802 0.1419 -2.4279 -6.6897 0.0000 0.0000 0.0000 -0.5569 -1.6808 -53.5278 -15.0888 -19.4116 75.5041 -2.4718 1.2251 -29.4382 -0.0245 1.0104 -2.7774 -7.7583 3.3099 53.9655 0.0270 1.6260 7.3588 2.5945 1.6948 -12.7898 -7.9500 -5.5037 -31.7257 5.2834 -5.3143 17.3286 2.2633 -2.2509 11.0937 -0.0000 -0.0000 0.0000 -55.8323 -41.8480 36.4531 36.1746 -45.6329 -15.6472 -0.0000 0.0000 -24.0517 21.6171 -10.7563 -4.2297 -7.1250 0.0000 -0.0000 -3.8463 18.4459 2.4372 -0.0000 -0.0000 0.0000 73.0283 42.6363 28.4204 -38.0255 46.8556 -16.9842 0.0000 -0.0000 -14.2343 -18.6614 -28.1804 9.0620 7.1250 -0.0000 -0.0000 13.5388 -58.9531 -4.6706
-4.4242 14.4890 0.6746 133.4070 77.1287 144.6370 0.0000 0.0000 0.0000 -14.1959 6.6414 -58.3301 10.3529 17.6036 60.6614 -0.2854 18.2202 -23.2108 0.1762 -2.7036 -7.4547 0.0000 0.0000 0.0000 -0.4392 -1.6904 -53.6820 -15.1448 -19.4252 75.6724 -2.5128 1.3462 -29.6545 -0.0162 0.8227 -2.2612 -7.7318 3.1885 53.7559 0.0119 1.5020 7.3461 2.6316 1.6383 -12.7759 -7.8664 -5.3944 -31.7733 5.1126 -5.1720 17.7465 2.2144 -2.2055 11.2417 0.0000 0.0000 0.0000 -56.0037 -41.5592 36.5729 36.3473 -45.7505 -15.7707 -0.0000 0.0000 -24.1261 21.4053 -10.6683 -4.1506 -7.1250 0.0000 -0.0000 -3.9934 18.5571 2.5210 0.0000 0.0000 0.0000 73.1719 42.6263 28.5796 -37.9406 46.8013 -16.9223 0.0000 -0.0000 -14.0958 -19.2418 -27.8348 9.2568 7.1250 -0.0000 -0.0000 12.7088 -58.7433 -4.3141
-4.4341 14.4879 0.7679 132.7700 77.0686 144.0920 0.0000 0.0000 0.0000 -14.0493 6.7046 -58.2242 10.1965 17.5189 60.1430 -0.3027 18.2643 -23.1105 0.2465 -3.1950 -8.8221 0.0000 0.0000 0.0000 -0.1954 -1.6138 -53.9623 -15.2048 -19.4395 75.8529 -2.5589 1.5537 -29.8771 -0.0074 0.5539 -1.5221 -7.6710 3.1390 53.3539 0.0457 1.5129 7.4374 2.6523 1.6322 -12.6319 -7.8384 -5.3853 -31.9234 4.9614 -5.1369 18.1912 2.1607 -2.2083 11.4279 0.0000 0.0000 0.0000 -56.1901 -41.5402 36.7370 36.4446 -45.8166 -15.8405 -0.0000 0.0000 -24.3100 21.3014 -11.0339 -4.2678 -7.1250 0.0000 -0.0000 -4.0768 18.1763 2.6082 0.0000 0.0000 0.0000 73.1453 42.5286 28.5521 -38.0679 46.8826 -17.0151 0.0000 -0.0000 -14.1100 -19.9034 -27.0685 9.3559 7.1250 -0.0000 -0.0000 11.5672 -58.1283 -3.7482
-4.4460 14.4829 0.8606 131.7170 77.1158 143.1810 0.0000 0.0000 0.0000 -13.8362 6.8662 -58.2059 10.0556 17.4410 59.6741 -0.3058 18.4158 -23.3215 0.2532 -3.2374 -8.9405 0.0000 0.0000 0.0000 0.0204 -1.3413 -54.3421 -15.2578 -19.4521 76.0121 -2.5819 1.6292 -29.9945 -0.0027 0.3345 -0.9192 -7.7096 3.1450 52.9523 0.0624 1.5174 7.4760 2.7009 1.6240 -12.5431 -7.8011 -5.3589 -32.3532 4.7655 -5.0575 19.0082 2.0965 -2.1946 11.8017 0.0000 0.0000 0.0000 -56.3872 -41.4110 36.7942 36.5972 -45.9196 -15.9501 -0.0000 0.0000 -24.4225 21.4048 -11.1294 -4.3270 -7.1250 0.0000 -0.0000 -4.0069 18.0659 2.5731 0.0000 0.0000 0.0000 73.3386 42.6361 28.6317 -37.9679 46.8188 -16.9422 0.0000 -0.0000 -13.9915 -20.2938 -27.1566 9.5801 7.1250 -0.0000 -0.0000 11.1949 -58.3037 -3.6729
-4.4599 14.4795 0.9441 130.6220 77.0237 142.2050 0.0000 0.0000 0.0000 -13.7880 6.9344 -58.1634 9.9143 17.3614 59.2015 -0.3046 18.3347 -23.2042 0.1997 -2.8776 -7.9383 0.0000 0.0000 0.0000 0.0859 -1.1820 -54.6684 -15.3048 -19.4630 76.1530 -2.5921 1.6827 -30.0417 -0.0003 0.1157 -0.3178 -7.6749 3.0593 52.5391 0.0167 1.4521 7.5366 2.6801 1.5878 -12.4209 -7.4791 -5.2623 -32.8173 4.2916 -4.9343 19.9969 1.8886 -2.1798 12.2349 -0.0000 -0.0000 0.0000 -56.5962 -41.3074 36.9070 36.7545 -46.0251 -16.0631 -0.0000 0.0000 -24.3530 21.7348 -10.9712 -4.3387 -7.1250 0.0000 -0.0000 -3.7698 18.2065 2.4085 -0.0000 -0.0000 0.0000 73.0368 42.9827 28.5276 -37.6552 46.6177 -16.7145 0.0000 -0.0000 -14.2659 -20.2928 -28.0578 9.8665 7.1250 -0.0000 -0.0000 11.6993 -59.2055 -4.0951
